<svg width="20" height="20" viewBox="0 0 20 20" fill="none" xmlns="http://www.w3.org/2000/svg">
<path d="M13.4496 2.46621L5.92461 4.96621C0.866276 6.65788 0.866276 9.41621 5.92461 11.0995L8.15794 11.8412L8.89961 14.0745C10.5829 19.1329 13.3496 19.1329 15.0329 14.0745L17.5413 6.55788C18.6579 3.18288 16.8246 1.34121 13.4496 2.46621ZM13.7163 6.94955L10.5496 10.1329C10.4246 10.2579 10.2663 10.3162 10.1079 10.3162C9.94961 10.3162 9.79128 10.2579 9.66628 10.1329C9.42461 9.89121 9.42461 9.49121 9.66628 9.24955L12.8329 6.06621C13.0746 5.82455 13.4746 5.82455 13.7163 6.06621C13.9579 6.30788 13.9579 6.70788 13.7163 6.94955Z" fill="white"/>
</svg>
